<svg xmlns="http://www.w3.org/2000/svg" viewBox="0 0 1640 1090" width="1640" height="1090">
<rect width="1640" height="1090" fill="#f5f6f8"/>

<!-- Title -->
<text x="820" y="32" text-anchor="middle" font-family="Arial,sans-serif" font-size="22" font-weight="bold" fill="#1a1a2e">WS_PIO — Wiring Diagram</text>
<text x="820" y="52" text-anchor="middle" font-family="Arial,sans-serif" font-size="13" fill="#555">Arduino Nano ESP32 · DS18B20 ×2 · GPS · FrSky X8R · SD Card · Servos ×2 · 12V→5V Buck</text>

<!-- ══ LEGEND ══════════════════════════════════════════════════ -->
<rect x="1290" y="68" width="320" height="175" fill="white" stroke="#ccc" stroke-width="1" rx="5"/>
<text x="1450" y="90" text-anchor="middle" font-family="Arial,sans-serif" font-size="13" font-weight="bold" fill="#333">Wire Color Key</text>
<line x1="1308" y1="108" x2="1388" y2="108" stroke="#cc0000" stroke-width="3"/>
<text x="1400" y="113" font-family="Arial,sans-serif" font-size="12" fill="#333">Power — 12V / 5V (RED)</text>
<line x1="1308" y1="130" x2="1388" y2="130" stroke="#ff7700" stroke-width="3"/>
<text x="1400" y="135" font-family="Arial,sans-serif" font-size="12" fill="#333">Power — 3.3V (ORANGE)</text>
<line x1="1308" y1="152" x2="1388" y2="152" stroke="#111" stroke-width="3"/>
<text x="1400" y="157" font-family="Arial,sans-serif" font-size="12" fill="#333">Ground (BLACK)</text>
<line x1="1308" y1="174" x2="1388" y2="174" stroke="#ccaa00" stroke-width="3"/>
<text x="1400" y="179" font-family="Arial,sans-serif" font-size="12" fill="#333">Servo / RF Signal (YELLOW)</text>
<line x1="1308" y1="196" x2="1388" y2="196" stroke="#009999" stroke-width="3"/>
<text x="1400" y="201" font-family="Arial,sans-serif" font-size="12" fill="#333">GPS UART (TEAL)</text>
<line x1="1308" y1="218" x2="1388" y2="218" stroke="#0055cc" stroke-width="3"/>
<text x="1400" y="223" font-family="Arial,sans-serif" font-size="12" fill="#333">SPI / 1-Wire Data (BLUE)</text>

<!-- ══ POWER CHAIN ══════════════════════════════════════════════ -->

<!-- 12V Battery -->
<rect x="45" y="68" width="158" height="82" fill="#2a2a2a" rx="6"/>
<text x="124" y="101" text-anchor="middle" font-family="Arial,sans-serif" font-size="13" font-weight="bold" fill="white">12V Li-Ion</text>
<text x="124" y="118" text-anchor="middle" font-family="Arial,sans-serif" font-size="11" fill="#aaa">Battery</text>
<text x="203" y="89" font-family="Arial,sans-serif" font-size="10" fill="#cc0000" font-weight="bold">12V+</text>
<text x="203" y="143" font-family="Arial,sans-serif" font-size="10" fill="#444" font-weight="bold">12V−</text>

<!-- Fuse -->
<rect x="235" y="68" width="110" height="82" fill="#444" rx="6"/>
<text x="290" y="101" text-anchor="middle" font-family="Arial,sans-serif" font-size="13" font-weight="bold" fill="white">5A Fuse</text>
<text x="290" y="118" text-anchor="middle" font-family="Arial,sans-serif" font-size="11" fill="#bbb">inline</text>

<!-- Switch -->
<rect x="380" y="68" width="130" height="82" fill="#444" rx="6"/>
<text x="445" y="101" text-anchor="middle" font-family="Arial,sans-serif" font-size="13" font-weight="bold" fill="white">ON / OFF</text>
<text x="445" y="118" text-anchor="middle" font-family="Arial,sans-serif" font-size="11" fill="#bbb">Switch</text>

<!-- Buck Converter -->
<rect x="545" y="58" width="205" height="102" fill="#1a3a1a" stroke="#44bb44" stroke-width="2" rx="6"/>
<text x="648" y="94" text-anchor="middle" font-family="Arial,sans-serif" font-size="13" font-weight="bold" fill="white">12V → 5V Buck</text>
<text x="648" y="112" text-anchor="middle" font-family="Arial,sans-serif" font-size="11" fill="#88ee88">Converter</text>
<text x="648" y="130" text-anchor="middle" font-family="Arial,sans-serif" font-size="10" fill="#66cc66">IN: 12V  OUT: 5V / 3A</text>
<!-- Buck IN label -->
<text x="535" y="86" text-anchor="end" font-family="Arial,sans-serif" font-size="10" fill="#cc0000">IN+</text>
<!-- Buck OUT labels -->
<text x="756" y="86" font-family="Arial,sans-serif" font-size="10" fill="#cc0000">5V+</text>
<text x="756" y="143" font-family="Arial,sans-serif" font-size="10" fill="#444">GND</text>

<!-- Power chain red wires -->
<line x1="203" y1="88" x2="235" y2="88" stroke="#cc0000" stroke-width="3"/>
<line x1="345" y1="88" x2="380" y2="88" stroke="#cc0000" stroke-width="3"/>
<line x1="510" y1="88" x2="545" y2="88" stroke="#cc0000" stroke-width="3"/>

<!-- Battery − to GND bus -->
<line x1="124" y1="150" x2="124" y2="228" stroke="#111" stroke-width="3"/>
<!-- Buck GND to GND bus -->
<line x1="610" y1="160" x2="610" y2="228" stroke="#111" stroke-width="3"/>
<!-- Buck 5V to 5V bus -->
<line x1="750" y1="88" x2="800" y2="88" stroke="#cc0000" stroke-width="3"/>
<line x1="800" y1="88" x2="800" y2="200" stroke="#cc0000" stroke-width="3"/>

<!-- ══ POWER BUSES ══════════════════════════════════════════════ -->
<line x1="100" y1="200" x2="1270" y2="200" stroke="#cc0000" stroke-width="5"/>
<rect x="100" y="190" width="52" height="20" fill="#cc0000" rx="3"/>
<text x="126" y="204" text-anchor="middle" font-family="Arial,sans-serif" font-size="10" font-weight="bold" fill="white">+5V</text>

<line x1="100" y1="228" x2="1270" y2="228" stroke="#111" stroke-width="5"/>
<rect x="100" y="218" width="52" height="20" fill="#222" rx="3"/>
<text x="126" y="232" text-anchor="middle" font-family="Arial,sans-serif" font-size="10" font-weight="bold" fill="white">GND</text>

<!-- ══ ARDUINO NANO ESP32 ══════════════════════════════════════ -->
<rect x="510" y="295" width="380" height="490" fill="#1a2a4a" stroke="#4477dd" stroke-width="2" rx="8"/>
<text x="700" y="322" text-anchor="middle" font-family="Arial,sans-serif" font-size="14" font-weight="bold" fill="white">Arduino Nano ESP32</text>
<text x="700" y="340" text-anchor="middle" font-family="Arial,sans-serif" font-size="11" fill="#88aaff">ESP32-S3 · 3.3V logic · native USB-C</text>
<!-- divider line -->
<line x1="520" y1="350" x2="880" y2="350" stroke="#334466" stroke-width="1"/>

<!-- LEFT-SIDE PIN LABELS (inside box, near left edge) -->
<text x="525" y="377" font-family="monospace" font-size="11" fill="#ffaaaa">VIN</text>
<text x="525" y="414" font-family="monospace" font-size="11" fill="#cccccc">GND</text>
<text x="525" y="454" font-family="monospace" font-size="11" fill="#ffbb66">3.3V</text>
<text x="525" y="497" font-family="monospace" font-size="11" fill="#aabbff">A0</text>
<!-- LEFT-SIDE functional labels -->
<text x="585" y="377" font-family="Arial,sans-serif" font-size="10" fill="#8899cc">← 5V power in</text>
<text x="585" y="414" font-family="Arial,sans-serif" font-size="10" fill="#8899cc">← common ground</text>
<text x="585" y="454" font-family="Arial,sans-serif" font-size="10" fill="#8899cc">→ 3.3V to sensors</text>
<text x="585" y="497" font-family="Arial,sans-serif" font-size="10" fill="#8899cc">→ OneWire data bus</text>

<!-- RIGHT-SIDE PIN LABELS (inside box, right-aligned) -->
<text x="880" y="377" text-anchor="end" font-family="monospace" font-size="11" fill="#66dddd">D3</text>
<text x="880" y="414" text-anchor="end" font-family="monospace" font-size="11" fill="#66dddd">D4</text>
<text x="880" y="457" text-anchor="end" font-family="monospace" font-size="11" fill="#ffdd66">D6</text>
<text x="880" y="500" text-anchor="end" font-family="monospace" font-size="11" fill="#ffdd66">D8</text>
<text x="880" y="543" text-anchor="end" font-family="monospace" font-size="11" fill="#ffdd66">D9</text>
<text x="880" y="586" text-anchor="end" font-family="monospace" font-size="11" fill="#88aaff">D10</text>
<text x="880" y="626" text-anchor="end" font-family="monospace" font-size="11" fill="#88aaff">D11</text>
<text x="880" y="666" text-anchor="end" font-family="monospace" font-size="11" fill="#88aaff">D12</text>
<text x="880" y="706" text-anchor="end" font-family="monospace" font-size="11" fill="#88aaff">D13</text>
<!-- RIGHT-SIDE functional labels -->
<text x="810" y="377" text-anchor="end" font-family="Arial,sans-serif" font-size="10" fill="#8899cc">GPS RX →</text>
<text x="810" y="414" text-anchor="end" font-family="Arial,sans-serif" font-size="10" fill="#8899cc">GPS TX →</text>
<text x="810" y="457" text-anchor="end" font-family="Arial,sans-serif" font-size="10" fill="#8899cc">RF signal →</text>
<text x="810" y="500" text-anchor="end" font-family="Arial,sans-serif" font-size="10" fill="#8899cc">Servo 2 →</text>
<text x="810" y="543" text-anchor="end" font-family="Arial,sans-serif" font-size="10" fill="#8899cc">Servo 1 →</text>
<text x="810" y="586" text-anchor="end" font-family="Arial,sans-serif" font-size="10" fill="#8899cc">SD CS →</text>
<text x="810" y="626" text-anchor="end" font-family="Arial,sans-serif" font-size="10" fill="#8899cc">SD MOSI →</text>
<text x="810" y="666" text-anchor="end" font-family="Arial,sans-serif" font-size="10" fill="#8899cc">SD MISO ←</text>
<text x="810" y="706" text-anchor="end" font-family="Arial,sans-serif" font-size="10" fill="#8899cc">SD SCK →</text>

<!-- Pin dots on LEFT edge of Arduino -->
<circle cx="510" cy="373" r="5" fill="#cc0000"/>
<circle cx="510" cy="410" r="5" fill="#555"/>
<circle cx="510" cy="450" r="5" fill="#ff7700"/>
<circle cx="510" cy="493" r="5" fill="#0055cc"/>

<!-- Pin dots on RIGHT edge of Arduino -->
<circle cx="890" cy="373" r="5" fill="#009999"/>
<circle cx="890" cy="410" r="5" fill="#009999"/>
<circle cx="890" cy="453" r="5" fill="#ccaa00"/>
<circle cx="890" cy="496" r="5" fill="#ccaa00"/>
<circle cx="890" cy="539" r="5" fill="#ccaa00"/>
<circle cx="890" cy="582" r="5" fill="#0055cc"/>
<circle cx="890" cy="622" r="5" fill="#0055cc"/>
<circle cx="890" cy="662" r="5" fill="#0055cc"/>
<circle cx="890" cy="702" r="5" fill="#0055cc"/>

<!-- Arduino VIN from 5V bus -->
<line x1="465" y1="200" x2="465" y2="373" stroke="#cc0000" stroke-width="2.5"/>
<line x1="465" y1="373" x2="510" y2="373" stroke="#cc0000" stroke-width="2.5"/>
<text x="445" y="288" font-family="Arial,sans-serif" font-size="10" fill="#cc0000" text-anchor="middle">5V</text>

<!-- Arduino GND from GND bus -->
<line x1="485" y1="228" x2="485" y2="410" stroke="#111" stroke-width="2.5"/>
<line x1="485" y1="410" x2="510" y2="410" stroke="#111" stroke-width="2.5"/>

<!-- ══ DS18B20 TEMP SENSORS (left side) ══════════════════════════ -->

<!-- Surface Sensor -->
<rect x="45" y="455" width="215" height="105" fill="#1e3d1e" stroke="#44bb44" stroke-width="1.5" rx="5"/>
<text x="152" y="481" text-anchor="middle" font-family="Arial,sans-serif" font-size="12" font-weight="bold" fill="white">DS18B20 — Surface</text>
<text x="152" y="497" text-anchor="middle" font-family="Arial,sans-serif" font-size="10" fill="#88ee88">addr: {40,156,235,111,0,0,0,114}</text>
<!-- Pin labels -->
<text x="72"  y="520" font-family="monospace" font-size="10" fill="#ffbb66">VDD</text>
<text x="135" y="520" font-family="monospace" font-size="10" fill="#ccc">GND</text>
<text x="200" y="520" font-family="monospace" font-size="10" fill="#aabbff">DQ</text>
<!-- Pin dots (right edge) -->
<circle cx="260" cy="490" r="5" fill="#ff7700"/>
<circle cx="260" cy="515" r="5" fill="#111"/>
<circle cx="260" cy="540" r="5" fill="#0055cc"/>

<!-- Depth Sensor -->
<rect x="45" y="600" width="215" height="105" fill="#1e3d1e" stroke="#44bb44" stroke-width="1.5" rx="5"/>
<text x="152" y="626" text-anchor="middle" font-family="Arial,sans-serif" font-size="12" font-weight="bold" fill="white">DS18B20 — Depth</text>
<text x="152" y="642" text-anchor="middle" font-family="Arial,sans-serif" font-size="10" fill="#88ee88">addr: {40,122,122,116,0,0,0,63}</text>
<!-- Pin labels -->
<text x="72"  y="665" font-family="monospace" font-size="10" fill="#ffbb66">VDD</text>
<text x="135" y="665" font-family="monospace" font-size="10" fill="#ccc">GND</text>
<text x="200" y="665" font-family="monospace" font-size="10" fill="#aabbff">DQ</text>
<!-- Pin dots (right edge) -->
<circle cx="260" cy="635" r="5" fill="#ff7700"/>
<circle cx="260" cy="660" r="5" fill="#111"/>
<circle cx="260" cy="685" r="5" fill="#0055cc"/>

<!-- 3.3V from Arduino → Surface VDD → Depth VDD -->
<line x1="510" y1="450" x2="400" y2="450" stroke="#ff7700" stroke-width="2.5"/>
<line x1="400" y1="450" x2="400" y2="490" stroke="#ff7700" stroke-width="2.5"/>
<line x1="400" y1="490" x2="260" y2="490" stroke="#ff7700" stroke-width="2.5"/>
<!-- branch to depth -->
<line x1="400" y1="490" x2="400" y2="635" stroke="#ff7700" stroke-width="2.5"/>
<line x1="400" y1="635" x2="260" y2="635" stroke="#ff7700" stroke-width="2.5"/>
<!-- labels -->
<text x="356" y="446" font-family="Arial,sans-serif" font-size="10" fill="#ff7700">3.3V</text>
<text x="356" y="458" font-family="Arial,sans-serif" font-size="10" fill="#ff7700">VDD</text>

<!-- GND bus → Surface GND → Depth GND -->
<line x1="180" y1="228" x2="180" y2="515" stroke="#111" stroke-width="2.5"/>
<line x1="180" y1="515" x2="260" y2="515" stroke="#111" stroke-width="2.5"/>
<line x1="180" y1="515" x2="180" y2="660" stroke="#111" stroke-width="2.5"/>
<line x1="180" y1="660" x2="260" y2="660" stroke="#111" stroke-width="2.5"/>

<!-- OneWire A0 → Surface DQ → Depth DQ (with pullup note) -->
<line x1="510" y1="493" x2="420" y2="493" stroke="#0055cc" stroke-width="2.5"/>
<line x1="420" y1="493" x2="420" y2="540" stroke="#0055cc" stroke-width="2.5"/>
<line x1="420" y1="540" x2="260" y2="540" stroke="#0055cc" stroke-width="2.5"/>
<line x1="420" y1="540" x2="420" y2="685" stroke="#0055cc" stroke-width="2.5"/>
<line x1="420" y1="685" x2="260" y2="685" stroke="#0055cc" stroke-width="2.5"/>
<!-- 4.7k pullup note -->
<text x="430" y="488" font-family="Arial,sans-serif" font-size="9" fill="#0055cc">A0 / OneWire</text>
<text x="430" y="499" font-family="Arial,sans-serif" font-size="9" fill="#0055cc">4.7kΩ→3.3V</text>

<!-- ══ GPS MODULE (upper right) ══════════════════════════════════ -->
<rect x="1010" y="268" width="255" height="122" fill="#3d2a0e" stroke="#cc8822" stroke-width="1.5" rx="5"/>
<text x="1137" y="294" text-anchor="middle" font-family="Arial,sans-serif" font-size="12" font-weight="bold" fill="white">GPS Module</text>
<text x="1137" y="311" text-anchor="middle" font-family="Arial,sans-serif" font-size="11" fill="#ffcc88">NMEA 0183 · 9600 baud</text>
<text x="1137" y="328" text-anchor="middle" font-family="Arial,sans-serif" font-size="10" fill="#cc9944">HardwareSerial(1) · D3/D4</text>
<!-- Pin labels bottom row -->
<text x="1023" y="354" font-family="monospace" font-size="10" fill="#ffaaaa">VCC</text>
<text x="1075" y="354" font-family="monospace" font-size="10" fill="#ccc">GND</text>
<text x="1128" y="354" font-family="monospace" font-size="10" fill="#66dddd">TX</text>
<text x="1193" y="354" font-family="monospace" font-size="10" fill="#66dddd">RX</text>
<!-- Pin dots (left edge) -->
<circle cx="1010" cy="313" r="5" fill="#cc0000"/>
<circle cx="1010" cy="338" r="5" fill="#111"/>
<circle cx="1010" cy="363" r="5" fill="#009999"/>
<circle cx="1010" cy="383" r="5" fill="#009999"/>

<!-- GPS 5V from bus -->
<line x1="1020" y1="200" x2="1020" y2="268" stroke="#cc0000" stroke-width="2.5"/>
<line x1="1020" y1="268" x2="1010" y2="268" stroke="#cc0000" stroke-width="0"/>
<line x1="1020" y1="268" x2="1010" y2="313" stroke="#cc0000" stroke-width="2.5"/>
<text x="1022" y="246" font-family="Arial,sans-serif" font-size="9" fill="#cc0000">VCC</text>

<!-- GPS GND from bus -->
<line x1="1048" y1="228" x2="1048" y2="268" stroke="#111" stroke-width="2.5"/>
<line x1="1048" y1="268" x2="1010" y2="338" stroke="#111" stroke-width="2.5"/>

<!-- GPS TX → Arduino D3 -->
<line x1="1010" y1="363" x2="930" y2="363" stroke="#009999" stroke-width="2.5"/>
<line x1="930" y1="363" x2="930" y2="373" stroke="#009999" stroke-width="2.5"/>
<line x1="930" y1="373" x2="890" y2="373" stroke="#009999" stroke-width="2.5"/>
<text x="1012" y="359" font-family="Arial,sans-serif" font-size="9" fill="#009999">GPS TX</text>
<text x="892" y="359" font-family="Arial,sans-serif" font-size="9" fill="#009999">D3(RX)</text>

<!-- GPS RX → Arduino D4 -->
<line x1="1010" y1="383" x2="945" y2="383" stroke="#009999" stroke-width="2.5"/>
<line x1="945" y1="383" x2="945" y2="410" stroke="#009999" stroke-width="2.5"/>
<line x1="945" y1="410" x2="890" y2="410" stroke="#009999" stroke-width="2.5"/>
<text x="1012" y="392" font-family="Arial,sans-serif" font-size="9" fill="#009999">GPS RX</text>
<text x="892" y="420" font-family="Arial,sans-serif" font-size="9" fill="#009999">D4(TX)</text>

<!-- ══ RF RECEIVER (FrSky X8R) ════════════════════════════════════ -->
<rect x="1010" y="427" width="255" height="120" fill="#3d0e0e" stroke="#cc3333" stroke-width="1.5" rx="5"/>
<text x="1137" y="453" text-anchor="middle" font-family="Arial,sans-serif" font-size="12" font-weight="bold" fill="white">RF Receiver (FrSky X8R)</text>
<text x="1137" y="470" text-anchor="middle" font-family="Arial,sans-serif" font-size="11" fill="#ffaaaa">PWM aux switch output</text>
<text x="1137" y="487" text-anchor="middle" font-family="Arial,sans-serif" font-size="10" fill="#cc6666">OFF≈1000µs  ON≈2000µs  thr=1800</text>
<!-- Pin labels -->
<text x="1023" y="512" font-family="monospace" font-size="10" fill="#ffaaaa">VCC</text>
<text x="1075" y="512" font-family="monospace" font-size="10" fill="#ccc">GND</text>
<text x="1130" y="512" font-family="monospace" font-size="10" fill="#ffdd66">CH(SIG)</text>
<!-- Pin dots (left edge) -->
<circle cx="1010" cy="462" r="5" fill="#cc0000"/>
<circle cx="1010" cy="487" r="5" fill="#111"/>
<circle cx="1010" cy="515" r="5" fill="#ccaa00"/>

<!-- RF 5V from bus -->
<line x1="1070" y1="200" x2="1070" y2="427" stroke="#cc0000" stroke-width="2.5"/>
<line x1="1070" y1="427" x2="1010" y2="462" stroke="#cc0000" stroke-width="2.5"/>
<text x="1072" y="320" font-family="Arial,sans-serif" font-size="9" fill="#cc0000">VCC</text>

<!-- RF GND from bus -->
<line x1="1095" y1="228" x2="1095" y2="427" stroke="#111" stroke-width="2.5"/>
<line x1="1095" y1="427" x2="1010" y2="487" stroke="#111" stroke-width="2.5"/>

<!-- RF CH signal → Arduino D6 (YELLOW) -->
<line x1="1010" y1="515" x2="960" y2="515" stroke="#ccaa00" stroke-width="2.5"/>
<line x1="960" y1="453" x2="960" y2="515" stroke="#ccaa00" stroke-width="2.5"/>
<line x1="890" y1="453" x2="960" y2="453" stroke="#ccaa00" stroke-width="2.5"/>
<text x="1012" y="511" font-family="Arial,sans-serif" font-size="9" fill="#ccaa00">CH signal</text>
<text x="892" y="443" font-family="Arial,sans-serif" font-size="9" fill="#ccaa00">D6(RX)</text>

<!-- ══ SD CARD MODULE ══════════════════════════════════════════════ -->
<rect x="1010" y="588" width="255" height="152" fill="#0e1e3d" stroke="#4466cc" stroke-width="1.5" rx="5"/>
<text x="1137" y="614" text-anchor="middle" font-family="Arial,sans-serif" font-size="12" font-weight="bold" fill="white">SD Card Module</text>
<text x="1137" y="631" text-anchor="middle" font-family="Arial,sans-serif" font-size="11" fill="#88aaff">SPI · FAT32 · YYYYMMDD.csv</text>
<!-- Pin labels -->
<text x="1018" y="656" font-family="monospace" font-size="10" fill="#ffaaaa">VCC</text>
<text x="1060" y="656" font-family="monospace" font-size="10" fill="#ccc">GND</text>
<text x="1104" y="656" font-family="monospace" font-size="10" fill="#88aaff">CS</text>
<text x="1133" y="656" font-family="monospace" font-size="10" fill="#88aaff">MOSI</text>
<text x="1175" y="656" font-family="monospace" font-size="10" fill="#88aaff">MISO</text>
<text x="1213" y="656" font-family="monospace" font-size="10" fill="#88aaff">SCK</text>
<!-- Pin dots (left edge) -->
<circle cx="1010" cy="620" r="5" fill="#cc0000"/>
<circle cx="1010" cy="645" r="5" fill="#111"/>
<circle cx="1010" cy="670" r="5" fill="#0055cc"/>
<circle cx="1010" cy="693" r="5" fill="#0055cc"/>
<circle cx="1010" cy="716" r="5" fill="#0055cc"/>
<circle cx="1010" cy="727" r="5" fill="#0055cc"/>

<!-- SD 5V from bus -->
<line x1="1120" y1="200" x2="1120" y2="588" stroke="#cc0000" stroke-width="2.5"/>
<line x1="1120" y1="588" x2="1010" y2="620" stroke="#cc0000" stroke-width="2.5"/>
<text x="1122" y="400" font-family="Arial,sans-serif" font-size="9" fill="#cc0000">VCC</text>

<!-- SD GND from bus -->
<line x1="1145" y1="228" x2="1145" y2="588" stroke="#111" stroke-width="2.5"/>
<line x1="1145" y1="588" x2="1010" y2="645" stroke="#111" stroke-width="2.5"/>

<!-- SD CS → Arduino D10 -->
<line x1="1010" y1="670" x2="966" y2="670" stroke="#0055cc" stroke-width="2"/>
<line x1="966" y1="582" x2="966" y2="670" stroke="#0055cc" stroke-width="2"/>
<line x1="890" y1="582" x2="966" y2="582" stroke="#0055cc" stroke-width="2"/>
<text x="892" y="572" font-family="Arial,sans-serif" font-size="9" fill="#0055cc">D10 CS</text>

<!-- SD MOSI → Arduino D11 -->
<line x1="1010" y1="693" x2="975" y2="693" stroke="#0055cc" stroke-width="2"/>
<line x1="975" y1="622" x2="975" y2="693" stroke="#0055cc" stroke-width="2"/>
<line x1="890" y1="622" x2="975" y2="622" stroke="#0055cc" stroke-width="2"/>
<text x="892" y="612" font-family="Arial,sans-serif" font-size="9" fill="#0055cc">D11 MOSI</text>

<!-- SD MISO → Arduino D12 -->
<line x1="1010" y1="716" x2="984" y2="716" stroke="#0055cc" stroke-width="2"/>
<line x1="984" y1="662" x2="984" y2="716" stroke="#0055cc" stroke-width="2"/>
<line x1="890" y1="662" x2="984" y2="662" stroke="#0055cc" stroke-width="2"/>
<text x="892" y="652" font-family="Arial,sans-serif" font-size="9" fill="#0055cc">D12 MISO</text>

<!-- SD SCK → Arduino D13 -->
<line x1="1010" y1="727" x2="993" y2="727" stroke="#0055cc" stroke-width="2"/>
<line x1="993" y1="702" x2="993" y2="727" stroke="#0055cc" stroke-width="2"/>
<line x1="890" y1="702" x2="993" y2="702" stroke="#0055cc" stroke-width="2"/>
<text x="892" y="692" font-family="Arial,sans-serif" font-size="9" fill="#0055cc">D13 SCK</text>

<!-- ══ SERVO 1 (Left rack) ═════════════════════════════════════════ -->
<rect x="155" y="845" width="215" height="110" fill="#2a1a4a" stroke="#8844cc" stroke-width="1.5" rx="5"/>
<text x="262" y="871" text-anchor="middle" font-family="Arial,sans-serif" font-size="12" font-weight="bold" fill="white">Servo 1 — Left Rack</text>
<text x="262" y="888" text-anchor="middle" font-family="Arial,sans-serif" font-size="10" fill="#bb99ee">continuous rotation · D9</text>
<!-- Pin labels (top edge) -->
<text x="175" y="843" font-family="monospace" font-size="10" fill="#111">GND</text>
<text x="230" y="843" font-family="monospace" font-size="10" fill="#ffaaaa">VCC</text>
<text x="300" y="843" font-family="monospace" font-size="10" fill="#ffdd66">SIG</text>
<!-- Pin dots (top edge) -->
<circle cx="195" cy="845" r="5" fill="#111"/>
<circle cx="248" cy="845" r="5" fill="#cc0000"/>
<circle cx="320" cy="845" r="5" fill="#ccaa00"/>
<!-- Wire labels inside servo -->
<text x="262" y="910" text-anchor="middle" font-family="monospace" font-size="10" fill="#aa88ee">STOP=1510  OPEN=1000  CLOSE=2000</text>
<text x="262" y="928" text-anchor="middle" font-family="monospace" font-size="10" fill="#aa88ee">Reed switch stop · MAG_PIN=D0</text>

<!-- Servo 1 GND from bus -->
<line x1="195" y1="228" x2="195" y2="845" stroke="#111" stroke-width="2.5"/>

<!-- Servo 1 VCC from bus -->
<line x1="248" y1="200" x2="248" y2="845" stroke="#cc0000" stroke-width="2.5"/>

<!-- Servo 1 signal from Arduino D9 (YELLOW) -->
<line x1="890" y1="539" x2="910" y2="539" stroke="#ccaa00" stroke-width="2.5"/>
<line x1="910" y1="539" x2="910" y2="820" stroke="#ccaa00" stroke-width="2.5"/>
<line x1="320" y1="820" x2="910" y2="820" stroke="#ccaa00" stroke-width="2.5"/>
<line x1="320" y1="820" x2="320" y2="845" stroke="#ccaa00" stroke-width="2.5"/>
<text x="892" y="529" font-family="Arial,sans-serif" font-size="9" fill="#ccaa00">D9 SIG</text>
<text x="295" y="838" font-family="Arial,sans-serif" font-size="9" fill="#ccaa00">SIG</text>

<!-- ══ SERVO 2 (Right rack) ═══════════════════════════════════════ -->
<rect x="430" y="845" width="215" height="110" fill="#2a1a4a" stroke="#8844cc" stroke-width="1.5" rx="5"/>
<text x="537" y="871" text-anchor="middle" font-family="Arial,sans-serif" font-size="12" font-weight="bold" fill="white">Servo 2 — Right Rack</text>
<text x="537" y="888" text-anchor="middle" font-family="Arial,sans-serif" font-size="10" fill="#bb99ee">continuous rotation · D8</text>
<!-- Pin labels (top edge) -->
<text x="450" y="843" font-family="monospace" font-size="10" fill="#111">GND</text>
<text x="505" y="843" font-family="monospace" font-size="10" fill="#ffaaaa">VCC</text>
<text x="575" y="843" font-family="monospace" font-size="10" fill="#ffdd66">SIG</text>
<!-- Pin dots (top edge) -->
<circle cx="470" cy="845" r="5" fill="#111"/>
<circle cx="523" cy="845" r="5" fill="#cc0000"/>
<circle cx="595" cy="845" r="5" fill="#ccaa00"/>
<!-- Wire labels inside servo -->
<text x="537" y="910" text-anchor="middle" font-family="monospace" font-size="10" fill="#aa88ee">STOP=1510  OPEN=1000  CLOSE=2000</text>
<text x="537" y="928" text-anchor="middle" font-family="monospace" font-size="10" fill="#aa88ee">Reed switch stop · MAG_PIN=D0</text>

<!-- Servo 2 GND from bus -->
<line x1="470" y1="228" x2="470" y2="845" stroke="#111" stroke-width="2.5"/>

<!-- Servo 2 VCC from bus -->
<line x1="523" y1="200" x2="523" y2="845" stroke="#cc0000" stroke-width="2.5"/>

<!-- Servo 2 signal from Arduino D8 (YELLOW) -->
<line x1="890" y1="496" x2="920" y2="496" stroke="#ccaa00" stroke-width="2.5"/>
<line x1="920" y1="496" x2="920" y2="808" stroke="#ccaa00" stroke-width="2.5"/>
<line x1="595" y1="808" x2="920" y2="808" stroke="#ccaa00" stroke-width="2.5"/>
<line x1="595" y1="808" x2="595" y2="845" stroke="#ccaa00" stroke-width="2.5"/>
<text x="892" y="486" font-family="Arial,sans-serif" font-size="9" fill="#ccaa00">D8 SIG</text>
<text x="570" y="838" font-family="Arial,sans-serif" font-size="9" fill="#ccaa00">SIG</text>

<!-- ══ REED SWITCH NOTE ════════════════════════════════════════════ -->
<rect x="680" y="845" width="275" height="70" fill="#2a2a1a" stroke="#aaaa33" stroke-width="1" rx="4"/>
<text x="817" y="866" text-anchor="middle" font-family="Arial,sans-serif" font-size="11" font-weight="bold" fill="#eeee88">Reed Switch (×2 per servo)</text>
<text x="817" y="882" text-anchor="middle" font-family="Arial,sans-serif" font-size="10" fill="#cccc66">MAG_PIN = D0 · INPUT_PULLUP</text>
<text x="817" y="898" text-anchor="middle" font-family="Arial,sans-serif" font-size="10" fill="#cccc66">LOW = magnet detected = stop servo</text>

<!-- ══ NOTES BOX ══════════════════════════════════════════════════ -->
<rect x="45" y="760" width="420" height="80" fill="#1a1a1a" stroke="#555" stroke-width="1" rx="4"/>
<text x="55" y="780" font-family="Arial,sans-serif" font-size="11" font-weight="bold" fill="#eee">Power Notes:</text>
<text x="55" y="797" font-family="Arial,sans-serif" font-size="10" fill="#aaa">• All 5V loads (GPS, RF, SD, Servos) run from buck converter output</text>
<text x="55" y="812" font-family="Arial,sans-serif" font-size="10" fill="#aaa">• Arduino logic runs at 3.3V; sensors powered from onboard 3.3V reg</text>
<text x="55" y="827" font-family="Arial,sans-serif" font-size="10" fill="#aaa">• Fuse protects entire circuit; switch interrupts 12V before buck input</text>

<!-- ══ CONNECTOR SUMMARY ══════════════════════════════════════════ -->
<rect x="680" y="760" width="560" height="80" fill="#1a1a1a" stroke="#555" stroke-width="1" rx="4"/>
<text x="690" y="780" font-family="Arial,sans-serif" font-size="11" font-weight="bold" fill="#eee">Signal Pin Summary:</text>
<text x="690" y="797" font-family="Arial,sans-serif" font-size="10" fill="#aaa">D3=GPS RX · D4=GPS TX · D6=RF CH · D8=Servo2 · D9=Servo1</text>
<text x="690" y="812" font-family="Arial,sans-serif" font-size="10" fill="#aaa">D10=SD CS · D11=SD MOSI · D12=SD MISO · D13=SD SCK</text>
<text x="690" y="827" font-family="Arial,sans-serif" font-size="10" fill="#aaa">A0=OneWire (DS18B20) · D0=Reed switch (INPUT_PULLUP)</text>

</svg>
